<svg id="Layer_1" data-name="Layer 1" xmlns="http://www.w3.org/2000/svg" viewBox="0 0 206.8 28.56"><defs><style>.cls-1{fill:#232323;}.cls-2{fill:#f1592b;}</style></defs><title>logo-kt</title><path class="cls-1" d="M66,34.41,65.66,33a11.35,11.35,0,0,1-6.56,2c-3.42-.07-5.25-1.46-5.47-4.86a77.11,77.11,0,0,1,0-10.3c.24-3.54,2.29-5.25,5.89-5.24,1.95,0,3.89.24,5.92.38V7l3.37-.49V34.41ZM65.46,18c-1.93-.16-3.78-.42-5.64-.42S57,18.45,57,20.4c-.08,3-.07,6.08,0,9.12,0,1.64.83,2.38,2.49,2.47a8,8,0,0,0,5.59-2.07,1.18,1.18,0,0,0,.39-.8C65.47,25.48,65.46,21.85,65.46,18Z" transform="translate(-10.45 -6.46)"/><path class="cls-1" d="M26.72,8.34l-.23,2.77c-1.56-.19-3-.48-4.54-.54a35.31,35.31,0,0,0-5.13.12c-1.46.15-2.06.92-2.3,2.35,0,.08,0,.16,0,.24-.56,4,0,4.92,4,6,1.77.47,3.55,1,5.28,1.53a4.45,4.45,0,0,1,3.39,4.54c0,1.52.06,3-.08,4.55a4.6,4.6,0,0,1-3.14,4.29c-4.51,1.49-9,.88-13.45-.52L11,31c2.39.3,4.67.6,7,.87a7.38,7.38,0,0,0,1.31,0c3.93-.24,5.79-3.28,4.09-6.91a3.59,3.59,0,0,0-2-1.49c-1.81-.61-3.7-1-5.54-1.49a13.83,13.83,0,0,1-2-.75,3.94,3.94,0,0,1-2.58-3.35,37.48,37.48,0,0,1,0-6.07A4.49,4.49,0,0,1,14.51,8C17.24,7,23.92,7.17,26.72,8.34Z" transform="translate(-10.45 -6.46)"/><path class="cls-1" d="M90.46,34.48h-3.4v-3q0-5.82,0-11.64c0-1.51-.57-2.22-2-1.93a47.42,47.42,0,0,0-5.93,1.77c-.24.08-.42.71-.42,1.08,0,4.12,0,8.24,0,12.36v1.39H75.33V6.92l3.3-.46v9.84c2.11-.57,4.12-1.25,6.17-1.63,3.76-.7,5.64.95,5.65,4.75,0,4.64,0,9.28,0,13.92Z" transform="translate(-10.45 -6.46)"/><path class="cls-1" d="M146.3,23.83c0-1.38.09-2.61,0-3.83a2.32,2.32,0,0,0-2.42-2.35c-2.5-.06-5,.11-7.67.18l-.36-2.46c3.7-.77,7.34-1.44,11-.07a4.29,4.29,0,0,1,2.83,4.11c.11,5,0,10,0,15h-2.74l-.35-1.18A12,12,0,0,1,140.36,35c-3.21,0-4.83-1.37-5.18-4.56a10,10,0,0,1,.23-3.32c.48-2,2.15-3.16,4.63-3.23C142.07,23.79,144.11,23.83,146.3,23.83Zm0,2.79c-1.57,0-3,0-4.43,0a4,4,0,0,0-1.53.13c-.61.27-1.48.68-1.6,1.18-.66,2.71-.16,4.32,2.71,4.08a10.57,10.57,0,0,0,1.42-.18c3.24-.72,3.48-1,3.44-4.32C146.34,27.3,146.34,27.06,146.34,26.63Z" transform="translate(-10.45 -6.46)"/><path class="cls-1" d="M107.18,23.76c0-1.23,0-2.3,0-3.38-.07-1.7-.86-2.69-2.56-2.73-2.26,0-4.53.2-6.79.33-.23,0-.46.05-.77.09l-.37-2.68a17.66,17.66,0,0,1,2.55-.49,48.64,48.64,0,0,1,6.55-.09,4.82,4.82,0,0,1,4.75,5.06c.11,4.83,0,9.66,0,14.59h-2.79l-.35-1.18A11.81,11.81,0,0,1,100.65,35a4.36,4.36,0,0,1-4.51-3.81A9.89,9.89,0,0,1,96,29c.1-3.44,1.8-5.11,5.24-5.17,1.6,0,3.2,0,4.79,0C106.38,23.82,106.75,23.78,107.18,23.76Zm0,3c-2.15,0-4.14-.09-6.12,0-1.23.08-1.78,1.12-1.71,2.73s.59,2.37,2,2.5a8.76,8.76,0,0,0,5.27-1.25,1.34,1.34,0,0,0,.56-.93C107.23,28.84,107.18,27.85,107.18,26.75Z" transform="translate(-10.45 -6.46)"/><path class="cls-1" d="M44.38,15h3.37V34.45H45.07l-.34-1.31L39,34.76l-.23.07c-4.29.8-6.23-.79-6.23-5.14,0-4.84,0-9.67,0-14.6H36c0,.39,0,.81,0,1.23q0,6.54,0,13.08c0,2,.71,2.65,2.67,2.23,1.63-.35,3.2-1,4.81-1.43.74-.21.94-.65.94-1.4,0-4.12,0-8.24,0-12.36C44.38,16,44.38,15.56,44.38,15Z" transform="translate(-10.45 -6.46)"/><path class="cls-2" d="M205.95,10.75H198V7.93h19.22v2.82h-7.87V34.38h-3.42Z" transform="translate(-10.45 -6.46)"/><path class="cls-2" d="M194.81,7.84l-4.24,5.7c-1.62,2.18-3.22,4.38-4.9,6.51a1.16,1.16,0,0,0,0,1.74c3,3.76,5.91,7.55,8.85,11.34l.81,1.05a4.07,4.07,0,0,1-5.08-1.36c-2.81-3.69-5.61-7.38-8.44-11a1.13,1.13,0,0,1-.07-1.64c2.89-3.87,5.73-7.79,8.61-11.67a1.62,1.62,0,0,1,1-.6C192.46,7.79,193.49,7.84,194.81,7.84Z" transform="translate(-10.45 -6.46)"/><path class="cls-2" d="M177,7.9h3.23V34.37H177Z" transform="translate(-10.45 -6.46)"/><path class="cls-1" d="M119.81,34.47h-3.17V6.91l3.17-.43Z" transform="translate(-10.45 -6.46)"/><path class="cls-1" d="M164.16,14.41a26.89,26.89,0,0,1,.38,2.82c0,.28-.34.65-.62.83-1.31.84-2.64,1.65-4,2.41A1.59,1.59,0,0,0,159,22.1c0,3.67,0,7.35,0,11v1.35h-3.34V15.07h2.84l.3,2.35Z" transform="translate(-10.45 -6.46)"/><path class="cls-1" d="M131.9,34.54c-1.41,0-2.52,0-3.62,0a1.51,1.51,0,0,1-.91-.63c-2.09-2.83-4.13-5.69-6.22-8.51a1,1,0,0,1,0-1.46c1.93-2.65,3.85-5.3,5.71-8a1.84,1.84,0,0,1,1.87-.94c.85.08,1.72,0,2.81,0l-5.51,7.64c-1.48,2-1.48,2,0,4Z" transform="translate(-10.45 -6.46)"/></svg>